<svg xmlns="http://www.w3.org/2000/svg" fill="none" viewBox="0 0 60 48">
  <path fill="url(#a)"
    d="M.055 15.125.019 35.77c-.008 4.796 5.336 7.662 9.327 5.003l20.596-13.722L50.49 40.844c3.982 2.673 9.335-.176 9.344-4.972l.034-19.997c.014-7.881-7.549-13.565-15.116-11.36l-.873.254a50.874 50.874 0 0 1-29.358-.271C7.351 2.264.068 7.614.055 15.125Z" />
  <path fill="#110F28" fill-opacity=".15"
    d="m30.163 27.057-6.033-4.292a.5.5 0 0 0-.782.494l1.293 7.298 5.523-3.5Z" />
  <path stroke="#fff" stroke-linecap="round" stroke-opacity=".4" stroke-width="1.5"
    d="M7.592 7c-5.11 2.755-4.519 5-4.519 7.5M57.274 26v1M3.052 18v2M57.274 30v5" />
  <path stroke="#0A0D27" stroke-linecap="round" stroke-width="2" d="M13.053 15v6M10.04 18h6.025" />
  <ellipse cx="1.506" cy="1.5" fill="#0A0D27" rx="1.506" ry="1.5"
    transform="matrix(1 0 0 1 43.217 12.057)" />
  <ellipse cx="1.506" cy="1.5" fill="#0A0D27" rx="1.506" ry="1.5"
    transform="matrix(1 0 0 1 48.237 16)" />
  <ellipse cx="1.506" cy="1.5" fill="#0A0D27" rx="1.506" ry="1.5"
    transform="matrix(1 0 0 1 43.217 20)" />
  <ellipse cx="1.506" cy="1.5" fill="#0A0D27" rx="1.506" ry="1.5"
    transform="matrix(1 0 0 1 38.196 16)" />
  <defs>
    <linearGradient id="a" x1="29.159" x2="30.155" y1="-7.5" y2="49" gradientUnits="userSpaceOnUse">
      <stop stop-color="#FF5F5F" />
      <stop offset="1" stop-color="#F062C0" />
      <stop offset="1" stop-color="#F23131" />
    </linearGradient>
  </defs>
</svg>